<svg
                    xmlns="http://www.w3.org/2000/svg"
                    width="16"
                    height="16"
                    fill="white"
                    viewBox="0 0 16 16"
                  >
                    <path d="M4.5 0A1.5 1.5 0 0 0 3 1.5V2H2a2 2 0 0 0-2 2v8a2 2 0 0 0 2 2h12a2 2 0 0 0 2-2V4a2 2 0 0 0-2-2h-1V1.5A1.5 1.5 0 0 0 11.5 0h-7zM3 3V1.5a.5.5 0 0 1 .5-.5h7a.5.5 0 0 1 .5.5V3H3zm10 1v2h-1V4h1zm-1 7V8h-1v4h1zm-2 0V8H9v4h1zm-2 0V8H7v4h1zm-2 0V8H5v4h1z"/>
                  </svg>